<svg viewBox="0 0 25 30" fill="none" xmlns="http://www.w3.org/2000/svg">
<mask id="path-8-inside-1_62369_254"><path id="svg_1" d="m17.4215,27.0581c0.4083,-0.1959 0.9011,-0.1283 1.217,0.1961l1.8259,1.875c0.2675,0.2747 0.709,0.2747 0.9766,0c0.2577,-0.2647 0.2577,-0.6865 0,-0.9511l-1.3567,-1.3932c-0.4259,-0.4374 -0.3615,-1.1493 0.0977,-1.5516c2.6418,-2.3138 4.318,-5.7645 4.318,-9.6188c0,-6.9668 -5.4765,-12.6145 -12.2322,-12.6145c-6.75562,0 -12.23216,5.6477 -12.23216,12.6145c0,3.8143 1.64165,7.2332 4.23602,9.5463c0.45272,0.4036 0.51323,1.11 0.09007,1.5446l-1.43416,1.4727c-0.25772,0.2646 -0.25773,0.6864 -0.00001,0.951c0.26757,0.2748 0.70908,0.2748 0.97665,0.0001l1.87963,-1.9302c0.31861,-0.3272 0.81655,-0.3929 1.22637,-0.1914c1.59276,0.7831 3.37559,1.2214 5.25759,1.2214c1.8412,0 3.5875,-0.4195 5.1537,-1.1709zm-5.1537,-0.2307c6.005,0 10.8731,-5.0202 10.8731,-11.2129c0,-6.19271 -4.8681,-11.21289 -10.8731,-11.21289c-6.005,0 -10.87302,5.02018 -10.87302,11.21289c0,6.1927 4.86802,11.2129 10.87302,11.2129zm-0.7595,-11.5294l0,-3.7979l0,-3.55918c0,-0.4315 0.3498,-0.78129 0.7812,-0.78129c0.4315,0 0.7813,0.34979 0.7813,0.78129l0,3.55918l0,3.7979l0,0.5426l0,0.282c0,0.4435 -0.3595,0.8031 -0.8031,0.8031c-0.4194,0 -0.7594,-0.34 -0.7594,-0.7594l0,-0.3257l0,-0.5426z" clip-rule="evenodd" fill-rule="evenodd"/></mask>
<g>
  <title>background</title>
  <rect fill="none" id="canvas_background" height="402" width="582" y="-1" x="-1"/>
</g>
<g>
  <title>Layer 1</title>
  <ellipse id="svg_2" fill="white" ry="1.08512" rx="1.0873" cy="9.32987" cx="17.7042"/>
  <ellipse id="svg_3" fill="white" ry="1.08512" rx="1.08731" cy="9.32987" cx="6.83112"/>
  <ellipse id="svg_4" fill="white" ry="1.08512" rx="1.08731" cy="22.3512" cx="6.83112"/>
  <ellipse id="svg_5" fill="white" ry="1.08512" rx="1.0873" cy="24.5215" cx="12.2677"/>
  <ellipse id="svg_6" fill="white" ry="1.08512" rx="1.08731" cy="15.7748" cx="3.56924"/>
  <ellipse id="svg_7" fill="white" ry="1.08512" rx="1.0873" cy="15.7748" cx="20.9661"/>
  <ellipse id="svg_8" fill="white" ry="1.08512" rx="1.0873" cy="22.3512" cx="17.7042"/>
  <path id="svg_9" fill="white" d="m17.4215,27.0581c0.4083,-0.1959 0.9011,-0.1283 1.217,0.1961l1.8259,1.875c0.2675,0.2747 0.709,0.2747 0.9766,0c0.2577,-0.2647 0.2577,-0.6865 0,-0.9511l-1.3567,-1.3932c-0.4259,-0.4374 -0.3615,-1.1493 0.0977,-1.5516c2.6418,-2.3138 4.318,-5.7645 4.318,-9.6188c0,-6.9668 -5.4765,-12.6145 -12.2322,-12.6145c-6.75562,0 -12.23216,5.6477 -12.23216,12.6145c0,3.8143 1.64165,7.2332 4.23602,9.5463c0.45272,0.4036 0.51323,1.11 0.09007,1.5446l-1.43416,1.4727c-0.25772,0.2646 -0.25773,0.6864 -0.00001,0.951c0.26757,0.2748 0.70908,0.2748 0.97665,0.0001l1.87963,-1.9302c0.31861,-0.3272 0.81655,-0.3929 1.22637,-0.1914c1.59276,0.7831 3.37559,1.2214 5.25759,1.2214c1.8412,0 3.5875,-0.4195 5.1537,-1.1709zm-5.1537,-0.2307c6.005,0 10.8731,-5.0202 10.8731,-11.2129c0,-6.19271 -4.8681,-11.21289 -10.8731,-11.21289c-6.005,0 -10.87302,5.02018 -10.87302,11.21289c0,6.1927 4.86802,11.2129 10.87302,11.2129zm-0.7595,-11.5294l0,-3.7979l0,-3.55918c0,-0.4315 0.3498,-0.78129 0.7812,-0.78129c0.4315,0 0.7813,0.34979 0.7813,0.78129l0,3.55918l0,3.7979l0,0.5426l0,0.282c0,0.4435 -0.3595,0.8031 -0.8031,0.8031c-0.4194,0 -0.7594,-0.34 -0.7594,-0.7594l0,-0.3257l0,-0.5426z" clip-rule="evenodd" fill-rule="evenodd"/>
  <path id="svg_10" mask="url(#path-8-inside-1_62369_254)" fill="none" d="m5.78384,27.199l2.8657,2.7906l-2.8657,-2.7906zm1.22637,-0.1914l1.76484,-3.5896l-1.76484,3.5896zm-3.106,2.1216l-2.8657,-2.7907l2.8657,2.7907zm-0.97664,-0.9511l2.86568,2.7906l-2.86568,-2.7906zm17.15673,-1.3932l-2.8657,2.7907l2.8657,-2.7907zm0.0977,-1.5516l-2.6355,-3.009l2.6355,3.009zm-15.91034,-0.0725l-2.66195,2.9856l2.66195,-2.9856zm0.09007,1.5446l-2.86568,-2.7907l2.86568,2.7907zm17.07927,1.4727l2.8657,-2.7907l-2.8657,2.7907zm-0.9766,0.9511l2.8657,-2.7907l-2.8657,2.7907zm-1.8259,-1.875l-2.8657,2.7907l2.8657,-2.7907zm-1.217,-0.1961l-1.7302,-3.6065l1.7302,3.6065zm-1.6487,2.9868l1.8259,1.8749l5.7314,-5.5813l-1.8259,-1.8749l-5.7314,5.5813zm8.5339,-4.6575l-1.3567,-1.3932l-5.7314,5.5814l1.3567,1.3932l5.7314,-5.5814zm-1.4892,2.8549c3.49,-3.0568 5.6825,-7.5957 5.6825,-12.6278l-8,0c0,2.6766 -1.1599,5.0389 -2.9535,6.6098l5.271,6.018zm5.6825,-12.6278c0,-9.059 -7.1522,-16.6145 -16.2322,-16.6145l0,8c4.4314,0 8.2322,3.7399 8.2322,8.6145l8,0zm-16.2322,-16.6145c-9.07991,0 -16.23216,7.5555 -16.23216,16.6145l8,0c0,-4.8746 3.80083,-8.6145 8.23216,-8.6145l0,-8zm-16.23216,16.6145c0,4.9798 2.14732,9.4767 5.57407,12.5319l5.3239,-5.9712c-1.76199,-1.571 -2.89797,-3.9119 -2.89797,-6.5607l-8,0zm5.46041,8.3002l-1.43417,1.4727l5.73137,5.5813l1.43417,-1.4727l-5.73137,-5.5813zm5.27386,8.0051l1.87963,-1.9302l-5.7314,-5.5813l-1.87963,1.9302l5.7314,5.5813zm-1.52453,-1.3226c2.12683,1.0457 4.51188,1.6318 7.02242,1.6318l0,-8c-1.2535,0 -2.43407,-0.2905 -3.49275,-0.811l-3.52967,7.1792zm7.02242,1.6318c2.4558,0 4.792,-0.5609 6.8839,-1.5645l-3.4604,-7.2129c-1.0405,0.4992 -2.1969,0.7774 -3.4235,0.7774l0,8zm0,-1.4016c8.3293,0 14.8731,-6.928 14.8731,-15.2129l-8,0c0,4.1005 -3.1924,7.2129 -6.8731,7.2129l0,8zm14.8731,-15.2129c0,-8.28491 -6.5438,-15.21289 -14.8731,-15.21289l0,8c3.6807,0 6.8731,3.11239 6.8731,7.21289l8,0zm-14.8731,-15.21289c-8.32929,0 -14.87302,6.92798 -14.87302,15.21289l8,0c0,-4.1005 3.19231,-7.21289 6.87302,-7.21289l0,-8zm-14.87302,15.21289c0,8.2849 6.54373,15.2129 14.87302,15.2129l0,-8c-3.68071,0 -6.87302,-3.1124 -6.87302,-7.2129l-8,0zm11.67605,-0.3165l0,0.5426l7.99997,0l0,-0.5426l-7.99997,0zm0,0.5426l0,0.282l7.99997,0l0,-0.282l-7.99997,0zm6.43747,0.3257l0,-0.3257l-8.00004,0l0,0.3257l8.00004,0zm0,-0.3257l0,-0.5426l-8.00004,0l0,0.5426l8.00004,0zm0,-0.5426l0,-3.7979l-8.00004,0l0,3.7979l8.00004,0zm0,-3.7979l0,-3.55918l-8.00004,0l0,3.55918l8.00004,0zm-6.43747,-3.55918l0,3.55918l7.99997,0l0,-3.55918l-7.99997,0zm0,3.55918l0,3.7979l7.99997,0l0,-3.7979l-7.99997,0zm3.21867,-8.34047c-2.64059,0 -4.78124,2.14066 -4.78124,4.78129l8.00004,0c0,1.77764 -1.4411,3.21868 -3.2188,3.21868l0,-7.99997zm-3.21867,12.96297c0,-1.7656 1.43127,-3.1969 3.19687,-3.1969l0,8c2.6527,0 4.8031,-2.1504 4.8031,-4.8031l-7.99997,0zm-0.42129,13.867c-0.99269,1.0194 -2.39744,1.1026 -3.40416,0.6076l3.52967,-7.1792c-1.82637,-0.898 -4.227,-0.6834 -5.85691,0.9903l5.7314,5.5813zm-8.58769,1.9302c1.83781,1.8872 4.87025,1.8872 6.70806,0l-5.7314,-5.5813c1.30267,-1.3377 3.4521,-1.3377 4.75476,0l-5.73142,5.5813zm0.00003,-6.5324c-1.77013,1.8177 -1.77014,4.7147 -0.00003,6.5324l5.73142,-5.5813c1.25468,1.2884 1.25467,3.3418 -0.00002,4.6302l-5.73137,-5.5813zm22.88812,-1.3932c1.3427,1.3789 0.944,3.3052 -0.1325,4.2481l-5.271,-6.018c-1.995,1.7474 -2.5225,5.0976 -0.3279,7.3513l5.7314,-5.5814zm-10.6605,-12.8346c-1.7776,0 -3.21867,-1.44104 -3.21867,-3.21868l7.99997,0c0,-2.64064 -2.1406,-4.78129 -4.7813,-4.78129l0,7.99997zm-10.67979,16.9868c-1.06341,-0.9481 -1.44708,-2.8625 -0.11366,-4.2317l5.73137,5.5813c2.17973,-2.2383 1.67504,-5.5654 -0.29381,-7.3208l-5.3239,5.9712zm22.69699,3.7734c1.7701,-1.8177 1.7701,-4.7147 0,-6.5324l-5.7314,5.5814c-1.2547,-1.2885 -1.2547,-3.3419 0,-4.6303l5.7314,5.5813zm-6.708,0c1.8378,1.8872 4.8702,1.8872 6.708,0l-5.7314,-5.5813c1.3027,-1.3377 3.4521,-1.3377 4.7548,0l-5.7314,5.5813zm-5.331,-18.9941c1.7897,0 3.2406,1.4508 3.2406,3.2406l-8.00004,0c0,2.6285 2.13087,4.7594 4.75944,4.7594l0,-8zm9.2365,11.5379c-1.6161,-1.6596 -3.9925,-1.8853 -5.8129,-1.012l3.4604,7.2129c-1.0037,0.4816 -2.3947,0.391 -3.3789,-0.6196l5.7314,-5.5813z"/>
  <rect id="svg_11" fill="white" transform="rotate(-90 11.500000000000002,4) " height="1.5" width="4" y="4" x="11.5"/>
  <rect id="svg_12" fill="white" rx="0.75" height="1.5" width="15.5" x="4.5"/>
</g>
</svg>
