<svg viewBox="0 0 25 30" fill="none" xmlns="http://www.w3.org/2000/svg">
<ellipse cx="18.2042" cy="9.32975" rx="1.0873" ry="1.08512" fill="#fff"/><ellipse cx="7.33114" cy="9.32975" rx="1.08731" ry="1.08512" fill="#fff"/><ellipse cx="7.33114" cy="22.3512" rx="1.08731" ry="1.08512" fill="#fff"/><ellipse cx="12.7677" cy="24.5214" rx="1.0873" ry="1.08512" fill="#fff"/><ellipse cx="4.06924" cy="15.7748" rx="1.08731" ry="1.08512" fill="#fff"/><ellipse cx="21.4661" cy="15.7748" rx="1.0873" ry="1.08512" fill="#fff"/><ellipse cx="18.2042" cy="22.3512" rx="1.0873" ry="1.08512" fill="#fff"/><mask id="a" fill="#fff"><path fill-rule="evenodd" clip-rule="evenodd" d="M17.9215 27.0581c.4083-.1959.9011-.1283 1.217.1961l1.8259 1.875c.2675.2747.709.2747.9766 0 .2577-.2647.2577-.6865 0-.9511l-1.3567-1.3932c-.4259-.4374-.3615-1.1493.0977-1.5516C23.3238 22.9195 25 19.4688 25 15.6145 25 8.6477 19.5235 3 12.7678 3 6.01218 3 .535645 8.6477.535645 15.6145c0 3.8143 1.641645 7.2332 4.236015 9.5463.45272.4036.51323 1.11.09007 1.5446l-1.43416 1.4727c-.25772.2646-.25773.6864-.00001.951.26757.2748.70908.2748.97665.0001l1.87963-1.9302c.31861-.3272.81655-.3929 1.22637-.1914 1.59276.7831 3.37559 1.2214 5.25759 1.2214 1.8412 0 3.5875-.4195 5.1537-1.1709Zm-5.1537-.2307c6.005 0 10.8731-5.0202 10.8731-11.2129 0-6.19271-4.8681-11.21289-10.8731-11.21289-6.005 0-10.87302 5.02018-10.87302 11.21289 0 6.1927 4.86802 11.2129 10.87302 11.2129Zm-.7595-11.5294V7.94092c0-.4315.3498-.78129.7812-.78129.4315 0 .7813.34979.7813.78129v8.18168c0 .4435-.3595.8031-.8031.8031-.4194 0-.7594-.34-.7594-.7594v-.8683Z"/></mask><path fill-rule="evenodd" clip-rule="evenodd" d="M17.9215 27.0581c.4083-.1959.9011-.1283 1.217.1961l1.8259 1.875c.2675.2747.709.2747.9766 0 .2577-.2647.2577-.6865 0-.9511l-1.3567-1.3932c-.4259-.4374-.3615-1.1493.0977-1.5516C23.3238 22.9195 25 19.4688 25 15.6145 25 8.6477 19.5235 3 12.7678 3 6.01218 3 .535645 8.6477.535645 15.6145c0 3.8143 1.641645 7.2332 4.236015 9.5463.45272.4036.51323 1.11.09007 1.5446l-1.43416 1.4727c-.25772.2646-.25773.6864-.00001.951.26757.2748.70908.2748.97665.0001l1.87963-1.9302c.31861-.3272.81655-.3929 1.22637-.1914 1.59276.7831 3.37559 1.2214 5.25759 1.2214 1.8412 0 3.5875-.4195 5.1537-1.1709Zm-5.1537-.2307c6.005 0 10.8731-5.0202 10.8731-11.2129 0-6.19271-4.8681-11.21289-10.8731-11.21289-6.005 0-10.87302 5.02018-10.87302 11.21289 0 6.1927 4.86802 11.2129 10.87302 11.2129Zm-.7595-11.5294V7.94092c0-.4315.3498-.78129.7812-.78129.4315 0 .7813.34979.7813.78129v8.18168c0 .4435-.3595.8031-.8031.8031-.4194 0-.7594-.34-.7594-.7594v-.8683Z" fill="#fff"/><path d="m6.28384 27.199 2.8657 2.7906-2.8657-2.7906Zm1.22637-.1914 1.76484-3.5896-1.76484 3.5896Zm-3.106 2.1216-2.8657-2.7907 2.8657 2.7907Zm-.97664-.9511 2.86568 2.7906-2.86568-2.7906Zm17.15673-1.3932-2.8657 2.7907 2.8657-2.7907Zm.0977-1.5516-2.6355-3.009 2.6355 3.009Zm-15.91034-.0725-2.66195 2.9856 2.66195-2.9856Zm.09007 1.5446-2.86568-2.7907 2.86568 2.7907ZM21.941 28.1781l2.8657-2.7907-2.8657 2.7907Zm-.9766.9511 2.8657-2.7907-2.8657 2.7907Zm-1.8259-1.875-2.8657 2.7907 2.8657-2.7907Zm-1.217-.1961-1.7302-3.6065 1.7302 3.6065Zm-1.6487 2.9868 1.8259 1.8749 5.7314-5.5813-1.8259-1.8749-5.7314 5.5813Zm8.5339-4.6575L23.45 23.9942l-5.7314 5.5814 1.3567 1.3932 5.7314-5.5814Zm-1.4892 2.8549C26.8075 25.1855 29 20.6466 29 15.6145h-8c0 2.6766-1.1599 5.0389-2.9535 6.6098l5.271 6.018ZM29 15.6145C29 6.5555 21.8478-1 12.7678-1v8C17.1992 7 21 10.7399 21 15.6145h8ZM12.7678-1C3.68789-1-3.46436 6.5555-3.46436 15.6145h8C4.53564 10.7399 8.33647 7 12.7678 7v-8ZM-3.46436 15.6145c0 4.9798 2.14732 9.4767 5.57407 12.5319l5.3239-5.9712c-1.76199-1.571-2.89797-3.9119-2.89797-6.5607h-8Zm5.46041 8.3002L.561883 25.3874l5.731367 5.5813 1.43417-1.4727-5.73137-5.5813Zm5.27386 8.0051 1.87963-1.9302-5.7314-5.5813-1.87963 1.9302 5.7314 5.5813Zm-1.52453-1.3226c2.12683 1.0457 4.51192 1.6318 7.02242 1.6318v-8c-1.2535 0-2.4341-.2905-3.49275-.811l-3.52967 7.1792Zm7.02242 1.6318c2.4558 0 4.792-.5609 6.8839-1.5645l-3.4604-7.2129c-1.0405.4992-2.1969.7774-3.4235.7774v8Zm0-1.4016c8.3293 0 14.8731-6.928 14.8731-15.2129h-8c0 4.1005-3.1924 7.2129-6.8731 7.2129v8Zm14.8731-15.2129c0-8.28491-6.5438-15.212889-14.8731-15.212889V8.40161c3.6807 0 6.8731 3.11239 6.8731 7.21289h8ZM12.7678.401611C4.43851.401611-2.10522 7.32959-2.10522 15.6145h8c0-4.1005 3.19231-7.21289 6.87302-7.21289V.401611ZM-2.10522 15.6145c0 8.2849 6.54373 15.2129 14.87302 15.2129v-8c-3.68071 0-6.87302-3.1124-6.87302-7.2129h-8Zm11.67605-.3165v.5426h7.99997v-.5426H9.57083Zm0 .5426v.282h7.99997v-.282H9.57083Zm6.43747.3257v-.3257H8.00826v.3257h8.00004Zm0-.3257v-.5426H8.00826v.5426h8.00004Zm0-.5426v-3.7979H8.00826v3.7979h8.00004Zm0-3.7979V7.94092H8.00826v3.55918h8.00004ZM9.57083 7.94092v3.55918h7.99997V7.94092H9.57083Zm0 3.55918v3.7979h7.99997v-3.7979H9.57083Zm3.21867-8.34047c-2.6406 0-4.78124 2.14066-4.78124 4.78129h8.00004c0 1.77764-1.4411 3.21868-3.2188 3.21868V3.15963ZM9.57083 16.1226c0-1.7656 1.43127-3.1969 3.19687-3.1969v8c2.6527 0 4.8031-2.1504 4.8031-4.8031H9.57083Zm-.42129 13.867c-.99269 1.0194-2.39744 1.1026-3.40416.6076l3.52967-7.1792c-1.82637-.898-4.227-.6834-5.85691.9903l5.7314 5.5813ZM.561854 31.9198c1.837806 1.8872 4.870246 1.8872 6.708056 0l-5.7314-5.5813c1.30267-1.3377 3.4521-1.3377 4.75476 0L.561854 31.9198Zm.000029-6.5324c-1.770133 1.8177-1.770143 4.7147-.000029 6.5324l5.731416-5.5813c1.25468 1.2884 1.25467 3.3418-.00002 4.6302L.561883 25.3874ZM23.45 23.9942c1.3427 1.3789.944 3.3052-.1325 4.2481l-5.271-6.018c-1.995 1.7474-2.5225 5.0976-.3279 7.3513l5.7314-5.5814ZM12.7895 11.1596c-1.7776 0-3.21867-1.44104-3.21867-3.21868h7.99997c0-2.64064-2.1406-4.78129-4.7813-4.78129v7.99997ZM2.10971 28.1464c-1.06341-.9481-1.447079-2.8625-.11366-4.2317l5.73137 5.5813c2.17973-2.2383 1.67504-5.5654-.29381-7.3208l-5.3239 5.9712Zm22.69699 3.7734c1.7701-1.8177 1.7701-4.7147 0-6.5324l-5.7314 5.5814c-1.2547-1.2885-1.2547-3.3419 0-4.6303l5.7314 5.5813Zm-6.708 0c1.8378 1.8872 4.8702 1.8872 6.708 0l-5.7314-5.5813c1.3027-1.3377 3.4521-1.3377 4.7548 0l-5.7314 5.5813Zm-5.331-18.9941c1.7897 0 3.2406 1.4508 3.2406 3.2406H8.00826c0 2.6285 2.13084 4.7594 4.75944 4.7594v-8Zm9.2365 11.5379c-1.6161-1.6596-3.9925-1.8853-5.8129-1.012l3.4604 7.2129c-1.0037.4816-2.3947.391-3.3789-.6196l5.7314-5.5813Z" fill="#fff" mask="url(#a)"/><path fill="#fff" d="M12 4V0h1.5v4z"/><rect x="5" width="15.5" height="1.5" rx=".75" fill="#fff"/></svg>
