<svg viewBox="0 0 61 60" fill="none" xmlns="http://www.w3.org/2000/svg"><path fill="#68B738" d="M.5 0h60v60H.5z"/><path fill-rule="evenodd" clip-rule="evenodd" d="M37.1173 15.0761c.3737-.1547.8038-.0692 1.0898.2168.9085.9085 2.0967 2.8777 3.0588 5.9179C42.2373 24.2804 43 28.5081 43 34c0 .5523-.4477 1-1 1h-3.5v9c0 .5523-.4477 1-1 1s-1-.4477-1-1V16c0-.4044.2436-.7691.6173-.9239ZM38.5 33h2.4912c-.0859-4.8164-.7861-8.5125-1.6321-11.1858-.2784-.8796-.5706-1.6427-.8591-2.2952V33ZM24.5 15c.5523 0 1 .4477 1 1v28c0 .5523-.4477 1-1 1s-1-.4477-1-1V16c0-.5523.4477-1 1-1Z" fill="#fff"/><path fill-rule="evenodd" clip-rule="evenodd" d="M20 15c.5523 0 1 .4477 1 1v5.5c0 .5569.192 1.3152.7009 1.9166.4791.5662 1.3136 1.0834 2.799 1.0834.5523 0 1 .4477 1 1s-.4477 1-1 1c-2.0144 0-3.4299-.7328-4.3258-1.7916C19.308 23.6848 19 22.4431 19 21.5V16c0-.5523.4477-1 1-1Z" fill="#fff"/><path fill-rule="evenodd" clip-rule="evenodd" d="M29 15c-.5523 0-1 .4477-1 1v5.5c0 .5569-.192 1.3152-.7009 1.9166-.4791.5662-1.3137 1.0834-2.7992 1.0834-.5523 0-.9998.4477-.9998 1s.4475 1 .9998 1c2.0145 0 3.4301-.7328 4.326-1.7916C29.692 23.6848 30 22.4431 30 21.5V16c0-.5523-.4477-1-1-1Z" fill="#fff"/></svg>
