<svg viewBox="0 0 61 60" fill="none" xmlns="http://www.w3.org/2000/svg">
<path fill="#68B738" d="M.5 0h60v60H.5z"/>
<g clip-path="url(#a)">
<path d="M43.3438 16.767c-.1004-.45-.4791-.767-.9113-.767h-.0056c-4.9378.033-16.9453.916-21.7932 8.38-2.5181 3.878-2.7346 8.913-.644 14.965.0159.047.0487.079.0703.122-.7472 1.973-1.0369 3.286-1.0444 3.323-.1087.54.2147 1.072.721 1.188.0656.015.1312.022.1968.022.4322 0 .8213-.321.916-.79.0197-.102 2.4084-10.373 10.8534-16.378.4313-.306.5475-.927.2597-1.387-.2878-.46-.8691-.585-1.3003-.277-4.7888 3.405-7.7381 8.008-9.4725 11.656-1.2413-4.578-.916-8.377.9862-11.305 3.7435-5.764 12.6225-7.154 17.9822-7.448C39.005 19.872 37.745 23.174 37.745 29c0 3.12-.8297 5.522-2.4647 7.14-2.6212 2.591-6.8794 2.834-9.9937 2.584-.5175-.045-.9666.371-1.006.922-.0394.55.3478 1.03.8635 1.072.6234.051 1.289.082 1.9809.082 3.1706 0 6.8691-.663 9.4294-3.194 2.0344-2.011 3.0656-4.906 3.0656-8.605 0-9.099 3.2156-11.096 3.2316-11.105.39-.209.5943-.677.4922-1.129Z" fill="#fff"/>
</g><defs><clipPath id="a"><path fill="#fff" transform="translate(15.5 14)" d="M0 0h30v32H0z"/></clipPath></defs></svg>
