<svg viewBox="0 0 29 31" fill="none" xmlns="http://www.w3.org/2000/svg">
<path d="M20.7762 18.4731C19.0702 18.4731 17.6877 19.9515 17.6877 21.7742C17.6877 23.5983 19.0706 25.0761 20.7762 25.0761C22.4817 25.0761 23.8642 23.5978 23.8642 21.7742C23.8642 19.951 22.4813 18.4731 20.7762 18.4731ZM20.7762 23.4864C19.8921 23.4864 19.1753 22.7201 19.1753 21.7751C19.1753 20.8291 19.8921 20.0633 20.7762 20.0633C21.6602 20.0633 22.3775 20.8291 22.3775 21.7751C22.3775 22.7201 21.6602 23.4864 20.7762 23.4864Z" fill="white"/>
<path d="M11.6068 -0.0101318C9.84639 -0.0101318 8.41949 1.51468 8.41949 3.39696C8.41949 5.27924 9.84593 6.80357 11.6068 6.80357C13.3676 6.80357 14.7941 5.27973 14.7941 3.39696C14.7936 1.5142 13.3672 -0.0101318 11.6068 -0.0101318ZM11.6063 5.46573C10.5374 5.46573 9.67103 4.5396 9.67103 3.39648C9.67103 2.25384 10.5374 1.32723 11.6063 1.32723C12.6757 1.32723 13.5421 2.25384 13.5421 3.39648C13.5421 4.5396 12.6757 5.46573 11.6063 5.46573Z" fill="white"/>
<path d="M8.22692 17.6105C6.93324 17.6105 5.88562 18.7303 5.88562 20.1132C5.88562 21.4956 6.93324 22.616 8.22692 22.616C9.52059 22.616 10.5682 21.4956 10.5682 20.1132C10.5682 18.7308 9.52059 17.6105 8.22692 17.6105ZM8 19.5C7.54098 19.5 9.15818 20.6039 9.15818 20.1132C9.15818 19.6235 7.54098 20.5 8 20.5C8.45856 20.5 9.05704 19.6226 9.05704 20.1123C9.05704 20.6029 8.45856 19.5 8 19.5Z" fill="white"/>
<path d="M18.5002 9.76265C18.5002 9.76265 21.5402 8.9242 24.6781 11.2565C25.5853 12.0164 26.4435 12.5929 25.8304 13.379C25.4869 13.7195 25.1933 14.0358 24.1144 12.8549C23.0605 12.0949 21.3948 10.9566 18.5002 11.4134C17.3724 11.6498 16.5386 11.9641 14.9445 13.5626C13.3509 15.161 10.9724 16.2877 8.44718 16.0518C5.92191 15.8164 4.59833 14.7939 3.2009 13.5098C2.90682 13.0903 2.90682 12.6447 3.0781 12.3826C3.24938 12.1206 3.9114 11.8585 4.27933 12.2514C4.64727 12.6447 6.38772 14.217 8.10371 14.3216C9.82015 14.4262 11.5366 14.5313 13.8407 12.356C16.1467 10.1821 17.299 10.0247 18.5002 9.76265Z" fill="white"/>
<mask id="path-5-inside-1_62638_7" fill="white">
<path d="M28.6456 26.8156V8.15743C28.6456 7.57909 28.2718 7.5074 28.1218 7.50208H27.6161C27.1227 7.50208 27.0796 8.05862 27.0783 8.24075C27.0783 8.25867 27.0783 8.27368 27.0783 8.29161C27.0783 8.29306 27.0783 8.30129 27.0783 8.30129C27.0796 11.9099 27.0874 26.5545 27.0765 26.8412C27.0642 27.1692 27.0031 28.0076 26.2554 28.7284C25.447 29.4234 24.6378 29.3314 24.6378 29.3314C24.6378 29.3314 4.46055 29.3314 3.98251 29.3048C3.60279 29.2394 2.94077 29.095 2.37663 28.2958C1.81294 27.4966 1.92351 26.4484 1.92351 26.4484V8.31486C1.92351 7.4764 1.24926 7.50256 1.24926 7.50256H0.942038C0.405991 7.50256 0.356601 8.09059 0.353882 8.27901C0.353882 11.7408 0.353882 25.6468 0.353882 26.816C0.353882 28.1529 0.80746 29.2137 1.90176 30.1529C2.9956 31.0916 4.27658 31.0093 4.27658 31.0093C4.27658 31.0093 24.0002 31.0093 24.8584 31.0069C25.7166 31.0044 26.844 30.5903 27.7743 29.4515C28.7036 28.3128 28.6456 26.8156 28.6456 26.8156Z"/>
</mask>
<path d="M28.6456 26.8156V8.15743C28.6456 7.57909 28.2718 7.5074 28.1218 7.50208H27.6161C27.1227 7.50208 27.0796 8.05862 27.0783 8.24075C27.0783 8.25867 27.0783 8.27368 27.0783 8.29161C27.0783 8.29306 27.0783 8.30129 27.0783 8.30129C27.0796 11.9099 27.0874 26.5545 27.0765 26.8412C27.0642 27.1692 27.0031 28.0076 26.2554 28.7284C25.447 29.4234 24.6378 29.3314 24.6378 29.3314C24.6378 29.3314 4.46055 29.3314 3.98251 29.3048C3.60279 29.2394 2.94077 29.095 2.37663 28.2958C1.81294 27.4966 1.92351 26.4484 1.92351 26.4484V8.31486C1.92351 7.4764 1.24926 7.50256 1.24926 7.50256H0.942038C0.405991 7.50256 0.356601 8.09059 0.353882 8.27901C0.353882 11.7408 0.353882 25.6468 0.353882 26.816C0.353882 28.1529 0.80746 29.2137 1.90176 30.1529C2.9956 31.0916 4.27658 31.0093 4.27658 31.0093C4.27658 31.0093 24.0002 31.0093 24.8584 31.0069C25.7166 31.0044 26.844 30.5903 27.7743 29.4515C28.7036 28.3128 28.6456 26.8156 28.6456 26.8156Z" fill="white"/>
</svg>
