<svg xmlns="http://www.w3.org/2000/svg" xmlns:xlink="http://www.w3.org/1999/xlink"><defs><clipPath id="a"><path fill="#fff" transform="translate(15.5 14)" d="M0 0h30v32H0z"/></clipPath><clipPath id="a"><path fill="#fff" transform="translate(0 .32)" d="M0 0h20v20.069H0z"/></clipPath><clipPath id="a"><path fill="#fff" transform="translate(15.5 13)" d="M0 0h29v31H0z"/></clipPath></defs><symbol id="alarm" viewBox="0 0 25 30"><ellipse cx="18.204" cy="9.33" rx="1.087" ry="1.085" fill="#fff"/><ellipse cx="7.331" cy="9.33" rx="1.087" ry="1.085" fill="#fff"/><ellipse cx="7.331" cy="22.351" rx="1.087" ry="1.085" fill="#fff"/><ellipse cx="12.768" cy="24.521" rx="1.087" ry="1.085" fill="#fff"/><ellipse cx="4.069" cy="15.775" rx="1.087" ry="1.085" fill="#fff"/><ellipse cx="21.466" cy="15.775" rx="1.087" ry="1.085" fill="#fff"/><ellipse cx="18.204" cy="22.351" rx="1.087" ry="1.085" fill="#fff"/><mask id="a" fill="#fff"><path fill-rule="evenodd" clip-rule="evenodd" d="M17.922 27.058a1.058 1.058 0 0 1 1.217.196l1.825 1.875a.682.682 0 0 0 .977-.95l-1.357-1.394c-.426-.437-.361-1.15.098-1.552C23.324 22.92 25 19.47 25 15.614 25 8.648 19.523 3 12.768 3 6.012 3 .536 8.648.536 15.614c0 3.815 1.641 7.234 4.236 9.547.452.403.513 1.11.09 1.544l-1.434 1.473a.682.682 0 1 0 .976.951l1.88-1.93a1.058 1.058 0 0 1 1.226-.191 11.878 11.878 0 0 0 5.258 1.221c1.841 0 3.587-.42 5.154-1.17Zm-5.154-.23c6.005 0 10.873-5.02 10.873-11.213S18.773 4.402 12.768 4.402c-6.005 0-10.873 5.02-10.873 11.213 0 6.192 4.868 11.212 10.873 11.212Zm-.76-11.53V7.941a.781.781 0 1 1 1.563 0v8.182c0 .443-.36.803-.803.803a.76.76 0 0 1-.76-.76v-.868Z"/></mask><path fill-rule="evenodd" clip-rule="evenodd" d="M17.922 27.058a1.058 1.058 0 0 1 1.217.196l1.825 1.875a.682.682 0 0 0 .977-.95l-1.357-1.394c-.426-.437-.361-1.15.098-1.552C23.324 22.92 25 19.47 25 15.614 25 8.648 19.523 3 12.768 3 6.012 3 .536 8.648.536 15.614c0 3.815 1.641 7.234 4.236 9.547.452.403.513 1.11.09 1.544l-1.434 1.473a.682.682 0 1 0 .976.951l1.88-1.93a1.058 1.058 0 0 1 1.226-.191 11.878 11.878 0 0 0 5.258 1.221c1.841 0 3.587-.42 5.154-1.17Zm-5.154-.23c6.005 0 10.873-5.02 10.873-11.213S18.773 4.402 12.768 4.402c-6.005 0-10.873 5.02-10.873 11.213 0 6.192 4.868 11.212 10.873 11.212Zm-.76-11.53V7.941a.781.781 0 1 1 1.563 0v8.182c0 .443-.36.803-.803.803a.76.76 0 0 1-.76-.76v-.868Z" fill="#fff"/><path d="m6.284 27.199 2.866 2.79-2.866-2.79Zm1.226-.191 1.765-3.59-1.765 3.59Zm-3.106 2.121L1.54 26.34l2.865 2.79Zm-.976-.95 2.865 2.79-2.865-2.79Zm17.156-1.394-2.865 2.79 2.865-2.79Zm.098-1.552-2.635-3.009 2.635 3.01Zm-15.91-.072L2.11 28.146l2.662-2.985Zm.09 1.544-2.866-2.79 2.866 2.79Zm17.079 1.473 2.866-2.79-2.866 2.79Zm-.977.951 2.866-2.79-2.866 2.79Zm-1.826-1.875-2.865 2.79 2.865-2.79Zm-1.217-.196-1.73-3.606 1.73 3.606Zm-1.648 2.987 1.826 1.875 5.731-5.582-1.826-1.874-5.731 5.58Zm8.534-4.658-1.357-1.393-5.731 5.582 1.356 1.393 5.732-5.582Zm-1.49 2.855C26.807 25.186 29 20.647 29 15.614h-8c0 2.677-1.16 5.04-2.954 6.61l5.272 6.018ZM29 15.614C29 6.556 21.848-1 12.768-1v8C17.199 7 21 10.74 21 15.614h8ZM12.768-1C3.688-1-3.464 6.556-3.464 15.614h8C4.536 10.74 8.336 7 12.768 7v-8ZM-3.464 15.614c0 4.98 2.147 9.477 5.574 12.532l5.324-5.97c-1.762-1.572-2.898-3.913-2.898-6.561h-8Zm5.46 8.3L.562 25.388l5.731 5.582 1.434-1.473-5.731-5.581ZM7.27 31.92l1.88-1.93-5.732-5.582-1.88 1.93L7.27 31.92Zm-1.525-1.323a15.878 15.878 0 0 0 7.023 1.632v-8a7.878 7.878 0 0 1-3.493-.811l-3.53 7.18Zm7.023 1.632c2.456 0 4.792-.56 6.884-1.565l-3.46-7.212c-1.041.499-2.198.777-3.424.777v8Zm0-1.402c8.33 0 14.873-6.928 14.873-15.213h-8c0 4.101-3.192 7.213-6.873 7.213v8ZM27.64 15.614C27.64 7.33 21.097.403 12.768.403v8c3.68 0 6.873 3.112 6.873 7.213h8ZM12.768.403C4.438.402-2.105 7.33-2.105 15.615h8c0-4.101 3.192-7.213 6.873-7.213v-8ZM-2.105 15.615c0 8.284 6.544 15.212 14.873 15.212v-8c-3.68 0-6.873-3.112-6.873-7.213h-8Zm11.676-.317v.543h8v-.543h-8Zm0 .543v.282h8v-.282h-8Zm6.437.325v-.325h-8v.325h8Zm0-.325v-.543h-8v.543h8Zm0-.543V11.5h-8v3.798h8Zm0-3.798V7.94h-8v3.56h8ZM9.571 7.94v3.56h8V7.94h-8Zm0 3.56v3.798h8V11.5h-8Zm3.219-8.34a4.781 4.781 0 0 0-4.782 4.78h8a3.219 3.219 0 0 1-3.219 3.22v-8ZM9.57 16.123a3.197 3.197 0 0 1 3.198-3.197v8a4.803 4.803 0 0 0 4.803-4.803h-8ZM9.15 29.99a2.943 2.943 0 0 1-3.405.607l3.53-7.179c-1.826-.898-4.227-.683-5.857.99L9.15 29.99ZM.562 31.92a4.682 4.682 0 0 0 6.708 0l-5.731-5.582a3.318 3.318 0 0 1 4.754 0L.562 31.92Zm0-6.533a4.682 4.682 0 0 0 0 6.533l5.731-5.582a3.318 3.318 0 0 1 0 4.63l-5.731-5.58Zm22.888-1.393c1.343 1.38.944 3.305-.133 4.248l-5.27-6.018c-1.996 1.748-2.523 5.098-.328 7.352l5.731-5.582ZM12.79 11.16a3.219 3.219 0 0 1-3.22-3.22h8c0-2.64-2.14-4.78-4.78-4.78v8ZM2.11 28.146c-1.064-.948-1.447-2.862-.114-4.231l5.731 5.581c2.18-2.238 1.675-5.565-.293-7.32l-5.324 5.97Zm22.697 3.774a4.682 4.682 0 0 0 0-6.533l-5.732 5.582a3.318 3.318 0 0 1 0-4.63l5.732 5.58Zm-6.708 0a4.682 4.682 0 0 0 6.708 0l-5.732-5.582a3.318 3.318 0 0 1 4.755 0L18.1 31.92Zm-5.331-18.994a3.24 3.24 0 0 1 3.24 3.24h-8a4.76 4.76 0 0 0 4.76 4.76v-8Zm9.236 11.538c-1.616-1.66-3.992-1.886-5.813-1.012l3.46 7.212a2.943 2.943 0 0 1-3.378-.62l5.731-5.58Z" fill="#fff" mask="url(#a)"/><path fill="#fff" d="M12 4V0h1.5v4z"/><rect x="5" width="15.5" height="1.5" rx=".75" fill="#fff"/></symbol><symbol id="arrow-left" viewBox="0 0 24 12"><path stroke="#000" stroke-width="2" d="M0 6h18"/><path d="m24 6-6.75 5.196V.804L24 6Z"/></symbol><symbol id="check-mark" viewBox="0 0 19 15"><path d="M7 11.718 1.3 5.27.25 6.457 7 14.094 18.25 1.366 17.2.094 7 11.718Z"/></symbol><symbol id="cutlery" viewBox="0 0 61 60"><path fill="#68B738" d="M.5 0h60v60H.5z"/><path fill-rule="evenodd" clip-rule="evenodd" d="M37.117 15.076a1 1 0 0 1 1.09.217c.909.908 2.097 2.878 3.059 5.918C42.237 24.28 43 28.508 43 34a1 1 0 0 1-1 1h-3.5v9a1 1 0 1 1-2 0V16a1 1 0 0 1 .617-.924ZM38.5 33h2.491c-.086-4.816-.786-8.512-1.632-11.186-.278-.88-.57-1.643-.859-2.295V33Zm-14-18a1 1 0 0 1 1 1v28a1 1 0 1 1-2 0V16a1 1 0 0 1 1-1Z" fill="#fff"/><path fill-rule="evenodd" clip-rule="evenodd" d="M20 15a1 1 0 0 1 1 1v5.5c0 .557.192 1.315.7 1.917.48.566 1.315 1.083 2.8 1.083a1 1 0 1 1 0 2c-2.014 0-3.43-.733-4.326-1.792A5.068 5.068 0 0 1 19 21.5V16a1 1 0 0 1 1-1Z" fill="#fff"/><path fill-rule="evenodd" clip-rule="evenodd" d="M29 15a1 1 0 0 0-1 1v5.5a3.07 3.07 0 0 1-.7 1.917c-.48.566-1.315 1.083-2.8 1.083a1 1 0 0 0 0 2c2.014 0 3.43-.733 4.326-1.792A5.068 5.068 0 0 0 30 21.5V16a1 1 0 0 0-1-1Z" fill="#fff"/></symbol><symbol id="e-mail" viewBox="0 0 19 14"><path d="M.65 5.848v8M17.65 5.848v8M0 13.198h18M0 1.198h18M17.35 3.03 9 9.524.65 3.03V1.498h16.7V3.03Z"/></symbol><symbol id="facebook" viewBox="0 0 13 20"><path d="M11.5.833H8.75A4.63 4.63 0 0 0 5.51 2.15a4.45 4.45 0 0 0-1.343 3.177v2.697h-2.75v3.595h2.75v7.191h3.666v-7.19h2.75l.917-3.596H7.833V5.327a.89.89 0 0 1 .269-.635.926.926 0 0 1 .648-.263h2.75V.833Z"/></symbol><symbol id="html-academy" viewBox="0 0 27 34"><path d="M13.643.016 13.5 0 0 1.407v24.606L13.5 34 27 26.013V1.407L13.643.016Zm11.591 25L13.5 31.956 1.766 25.015V14.93l11.685 6.916.02 1.253-8.017-4.743-.011 1.225 8.046 4.809.02 1.286-8.045-4.758-.01 1.226L13.5 26.95l8.124-4.833V16.91l3.62-2.15-.01 10.256Zm0-11.564-3.22 1.88-1.482.875-7.065-4.187-.011 1.225 6.04 3.573-.053.031-.13.076-.86.492-4.986-2.948-.011 1.225 3.936 2.328-.933.61-.021.012-2.971-1.742-.011 1.225 1.947 1.135-1.988 1.186-11.618-6.872 11.638-6.958 11.8 6.834Zm0-1.225L13.44 5.31 1.766 12.22V2.99L13.5 1.764 25.234 2.99v9.237Z"/></symbol><symbol id="instagram" viewBox="0 0 16 16"><path d="M7.984.063c1.334 0 2.422.015 3.266.046.719.032 1.36.157 1.922.375.541.209 1.01.51 1.406.907.396.395.698.864.906 1.406.22.562.344 1.203.375 1.922.032.843.047 1.932.047 3.265 0 1.334-.015 2.422-.047 3.266-.03.719-.156 1.36-.375 1.922a3.987 3.987 0 0 1-.906 1.406 3.987 3.987 0 0 1-1.406.906c-.563.22-1.203.344-1.922.375-.844.032-1.932.047-3.266.047a91.88 91.88 0 0 1-3.265-.047c-.719-.03-1.36-.156-1.922-.375a3.987 3.987 0 0 1-1.406-.906 3.987 3.987 0 0 1-.907-1.406C.266 12.609.141 11.969.11 11.25a91.735 91.735 0 0 1-.046-3.266c0-1.333.015-2.421.046-3.265.032-.719.157-1.36.375-1.922.209-.542.51-1.01.907-1.406A3.987 3.987 0 0 1 2.797.484C3.359.266 4 .141 4.719.11A91.733 91.733 0 0 1 7.984.063Zm0 1.03c-1.385 0-2.515.016-3.39.048-.563.02-1.084.12-1.563.296a2.853 2.853 0 0 0-1.594 1.594c-.177.48-.276 1-.296 1.563a98.83 98.83 0 0 0-.047 3.39c0 1.386.015 2.516.047 3.391.02.563.12 1.083.296 1.563.313.75.844 1.28 1.594 1.593.48.177 1 .276 1.563.297.875.031 2.005.047 3.39.047 1.386 0 2.516-.016 3.391-.047a5.015 5.015 0 0 0 1.563-.297 2.852 2.852 0 0 0 1.593-1.594c.177-.479.276-1 .297-1.562.031-.875.047-2.005.047-3.39 0-1.386-.016-2.516-.047-3.391a5.015 5.015 0 0 0-.297-1.563 2.853 2.853 0 0 0-1.594-1.594c-.479-.177-1-.276-1.562-.296a98.803 98.803 0 0 0-3.39-.047Zm0 10.063c.875 0 1.623-.31 2.243-.93.62-.62.93-1.367.93-2.242s-.31-1.622-.93-2.242a3.056 3.056 0 0 0-2.243-.93c-.875 0-1.622.31-2.242.93-.62.62-.93 1.367-.93 2.242s.31 1.623.93 2.243c.62.62 1.367.93 2.242.93Zm0-7.234c1.125 0 2.084.396 2.875 1.187.792.792 1.188 1.75 1.188 2.875s-.396 2.084-1.188 2.875c-.791.792-1.75 1.188-2.875 1.188s-2.083-.396-2.875-1.188c-.791-.791-1.187-1.75-1.187-2.875s.396-2.083 1.187-2.875c.792-.791 1.75-1.187 2.875-1.187Zm5.188-.156c0 .26-.094.481-.281.664a.949.949 0 0 1-.688.273.904.904 0 0 1-.664-.273.904.904 0 0 1-.273-.664c0-.271.09-.5.273-.688a.891.891 0 0 1 .664-.281.93.93 0 0 1 .68.289.93.93 0 0 1 .289.68Z"/></symbol><symbol id="leaf" viewBox="0 0 61 60"><path fill="#68B738" d="M.5 0h60v60H.5z"/><g clip-path="url(#a)"><path d="M43.344 16.767c-.1-.45-.48-.767-.911-.767h-.006c-4.938.033-16.945.916-21.793 8.38-2.518 3.878-2.735 8.913-.644 14.965.016.047.048.079.07.122-.747 1.973-1.037 3.286-1.044 3.323-.11.54.214 1.072.72 1.188a.88.88 0 0 0 .197.022c.433 0 .822-.321.916-.79.02-.102 2.409-10.373 10.854-16.378.431-.306.547-.927.26-1.387-.288-.46-.87-.585-1.3-.277-4.79 3.405-7.739 8.008-9.473 11.656-1.242-4.578-.916-8.377.986-11.305 3.743-5.764 12.622-7.154 17.982-7.448-1.153 1.801-2.413 5.103-2.413 10.929 0 3.12-.83 5.522-2.465 7.14-2.62 2.591-6.88 2.834-9.993 2.584-.518-.045-.967.371-1.006.922-.04.55.347 1.03.863 1.072.623.051 1.29.082 1.981.082 3.17 0 6.87-.663 9.43-3.194 2.034-2.011 3.065-4.906 3.065-8.605 0-9.099 3.216-11.096 3.232-11.105.39-.209.594-.677.492-1.129Z" fill="#fff"/></g></symbol><symbol id="phone" viewBox="0 0 20 21"><g clip-path="url(#a)"><path d="M17.9 9.753H9.4v1.204h8.5l-2.1 2.107.9.903 3.1-3.11a.754.754 0 0 0 0-.904l-3.1-3.11-.9.903 2.1 2.007ZM8.1 19.787v-6.221a.653.653 0 0 0-.6-.602H3.1a1.226 1.226 0 0 0 1.2 1.204h2.5v5.017H3.1a1.784 1.784 0 0 1-1.728-1.02 1.801 1.801 0 0 1-.172-.686V3.431a1.78 1.78 0 0 1 .483-1.25A1.767 1.767 0 0 1 2.9 1.624h3.9v5.017H4.4a1.218 1.218 0 0 0-1.2 1.204h4.4a.649.649 0 0 0 .6-.602V.923A.863.863 0 0 0 7.5.32H3.1a2.99 2.99 0 0 0-2.151.81A3.01 3.01 0 0 0 0 3.23v13.948a2.91 2.91 0 0 0 .772 2.192 2.89 2.89 0 0 0 2.128.919h4.6a.499.499 0 0 0 .6-.502Z"/></g></symbol><symbol id="present" viewBox="0 0 78 80"><path d="M64.016 34.713H14.03c-1.754 0-3.182-1.418-3.182-3.16v-9.469c0-1.742 1.428-3.16 3.182-3.16h49.984c1.754 0 3.18 1.418 3.18 3.16v9.469c0 1.742-1.426 3.16-3.18 3.16ZM14.03 21.346a.751.751 0 0 0-.744.738v9.469c0 .407.334.738.744.738h49.984c.41 0 .743-.331.743-.738v-9.469a.75.75 0 0 0-.743-.738H14.03Z" fill="#fff"/><path d="M57.045 67.149H20.999c-3.377 0-6.125-2.73-6.125-6.086V33.502c0-.669.546-1.212 1.219-1.212s1.219.543 1.219 1.212v27.56c0 2.021 1.654 3.665 3.687 3.665h36.046c2.032 0 3.686-1.644 3.686-3.664V33.502c0-.669.546-1.212 1.219-1.212.672 0 1.218.543 1.218 1.212v27.56c0 3.357-2.747 6.087-6.123 6.087Z" fill="#fff"/><path d="M39.023 67.149a1.215 1.215 0 0 1-1.22-1.211V33.502c0-.669.547-1.212 1.22-1.212.672 0 1.218.543 1.218 1.212v32.435c0 .67-.545 1.212-1.218 1.212ZM23.811 21.341c-3.814-2.054-5.238-6.808-3.173-10.6 2.064-3.789 6.848-5.204 10.665-3.154 5.814 3.13 8.954 11.86 9.084 12.23l-2.3.804c-.029-.083-2.961-8.222-7.944-10.904-2.635-1.415-5.937-.438-7.36 2.177-1.426 2.618-.444 5.9 2.19 7.318l-1.162 2.13Z" fill="#fff"/><path d="m54.231 21.341-1.16-2.13a5.376 5.376 0 0 0 2.622-3.207 5.327 5.327 0 0 0-.431-4.109 5.382 5.382 0 0 0-3.226-2.604 5.426 5.426 0 0 0-4.134.426c-4.982 2.682-7.915 10.82-7.944 10.903l-2.3-.803c.131-.37 3.27-9.101 9.084-12.23a7.859 7.859 0 0 1 5.99-.617 7.8 7.8 0 0 1 4.674 3.771 7.72 7.72 0 0 1 .623 5.953 7.788 7.788 0 0 1-3.798 4.647ZM61.95 50.931H16.093a1.215 1.215 0 0 1-1.219-1.21c0-.67.546-1.212 1.219-1.212H61.95c.672 0 1.218.543 1.218 1.211 0 .669-.545 1.211-1.218 1.211Z" fill="#fff"/></symbol><symbol id="tub" viewBox="0 0 61 60"><path fill="#68B738" d="M.5 0h60v60H.5z"/><g clip-path="url(#a)" fill="#fff"><path d="M36.276 31.473c-1.706 0-3.088 1.479-3.088 3.301 0 1.824 1.383 3.302 3.088 3.302 1.706 0 3.088-1.478 3.088-3.302 0-1.823-1.383-3.3-3.088-3.3Zm0 5.013c-.884 0-1.6-.766-1.6-1.71 0-.947.716-1.713 1.6-1.713.884 0 1.602.766 1.602 1.712 0 .945-.718 1.711-1.602 1.711ZM27.107 12.99c-1.76 0-3.188 1.525-3.188 3.407 0 1.882 1.427 3.407 3.188 3.407 1.76 0 3.187-1.524 3.187-3.407s-1.427-3.407-3.187-3.407Zm0 5.476c-1.07 0-1.936-.926-1.936-2.07 0-1.142.866-2.069 1.935-2.069 1.07 0 1.936.927 1.936 2.07 0 1.143-.866 2.069-1.936 2.069ZM23.727 30.61c-1.294 0-2.341 1.12-2.341 2.503s1.047 2.503 2.34 2.503c1.295 0 2.342-1.12 2.342-2.503 0-1.382-1.047-2.503-2.341-2.503ZM23.5 32.5c-.459 0 1.158 1.104 1.158.613 0-.49-1.617.387-1.158.387.459 0 1.057-.877 1.057-.388 0 .49-.598-.612-1.057-.612ZM34 22.763s3.04-.839 6.178 1.493c.907.76 1.766 1.337 1.152 2.123-.343.34-.637.657-1.716-.524-1.054-.76-2.72-1.898-5.614-1.442-1.128.237-1.961.551-3.555 2.15-1.594 1.598-3.973 2.725-6.498 2.489-2.525-.236-3.849-1.258-5.246-2.542-.294-.42-.294-.865-.123-1.127.171-.262.833-.524 1.201-.132.368.394 2.109 1.966 3.825 2.07 1.716.105 3.433.21 5.737-1.965 2.306-2.174 3.458-2.331 4.66-2.593Z"/><mask id="b"><path d="M44.146 39.816V21.157c0-.578-.374-.65-.524-.655h-.506c-.493 0-.536.557-.538.739V21.3c.002 3.609.01 18.253-.002 18.54a2.681 2.681 0 0 1-.82 1.887c-.809.695-1.618.603-1.618.603s-20.177 0-20.655-.026c-.38-.066-1.042-.21-1.606-1.01-.564-.798-.453-1.847-.453-1.847V21.315c0-.839-.675-.812-.675-.812h-.307c-.536 0-.585.588-.588.776v18.537c0 1.337.454 2.398 1.548 3.337 1.094.939 2.375.856 2.375.856s19.723 0 20.581-.002c.859-.003 1.986-.417 2.916-1.555.93-1.14.872-2.636.872-2.636Z"/></mask><path d="M44.146 39.816V21.157c0-.578-.374-.65-.524-.655h-.506c-.493 0-.536.557-.538.739V21.3c.002 3.609.01 18.253-.002 18.54a2.681 2.681 0 0 1-.82 1.887c-.809.695-1.618.603-1.618.603s-20.177 0-20.655-.026c-.38-.066-1.042-.21-1.606-1.01-.564-.798-.453-1.847-.453-1.847V21.315c0-.839-.675-.812-.675-.812h-.307c-.536 0-.585.588-.588.776v18.537c0 1.337.454 2.398 1.548 3.337 1.094.939 2.375.856 2.375.856s19.723 0 20.581-.002c.859-.003 1.986-.417 2.916-1.555.93-1.14.872-2.636.872-2.636Z"/><path d="M44.146 39.816h-20v.387l.015.387 19.985-.774Zm-.524-19.314.71-19.987-.355-.013h-.355v20Zm-1.044.739-20-.15v.15h20Zm0 .06h-20v.008l20-.008Zm-.002 18.54-19.985-.758v.013l19.986.745Zm-.82 1.887 13.039 15.165.431-.37.41-.396-13.88-14.399Zm-1.618.603 2.26-19.872-1.127-.128h-1.133v20Zm-20.655-.026-3.395 19.71 1.133.195 1.149.064 1.113-19.97Zm-1.606-1.01L1.533 52.824l.004.006 16.34-11.533Zm-.453-1.847 19.89 2.098.11-1.046v-1.052h-20Zm-.675-18.945v20h.388l.387-.016-.775-19.984Zm-.895.776-19.998-.288-.002.144v.144h20Zm1.548 21.874L4.376 58.33l13.026-15.177Zm2.375.856v-20h-.643l-.64.041 1.283 19.96Zm23.497-1.557 15.49 12.653.005-.008-15.495-12.645Zm20.872-2.636V21.157h-40v18.659h40Zm0-18.659c0-4.97-1.859-11.419-7.618-16.084-4.89-3.96-10.03-4.481-12.196-4.558l-1.42 39.974a19.462 19.462 0 0 1-11.56-4.332c-5.535-4.483-7.206-10.608-7.206-15h40ZM43.622.502h-.506v40h.506v-40Zm-.506 0a20.47 20.47 0 0 0-12.283 4.083 20.527 20.527 0 0 0-6.419 8.034 21.136 21.136 0 0 0-1.835 8.473l39.999.298c-.006.733-.014 3.914-1.667 7.598a19.474 19.474 0 0 1-6.096 7.61 19.53 19.53 0 0 1-11.699 3.904v-40ZM22.578 21.241V21.292h40V21.24h-40Zm0 .05V21.302h40V21.291h-40Zm0 .018.004 10.511a8664.752 8664.752 0 0 1-.002 7.252c-.002.788-.006.45.01.011L62.563 40.6c.02-.51.018-1.37.018-1.45l.002-1.807v-5.529c0-4.15-.003-8.719-.004-10.52l-40 .016Zm.012 17.787c.05-1.35.384-7.042 5.285-11.766l27.761 28.797c6.396-6.166 6.852-13.536 6.927-15.54L22.59 39.096Zm6.126-12.532a17.512 17.512 0 0 1 7.807-3.844 17.955 17.955 0 0 1 4.628-.362 19.312 19.312 0 0 1 1.172.093l.037.004.019.002c.01.001.019.002-2.241 19.874-2.26 19.872-2.25 19.873-2.241 19.874l.018.003a42.98 42.98 0 0 0 .269.028 20.68 20.68 0 0 0 2.597.093 22.044 22.044 0 0 0 3.983-.468 22.487 22.487 0 0 0 10.03-4.968l-26.078-30.33ZM40.138 42.33v-20h-3.156a17380.765 17380.765 0 0 1-14.032-.01l-2.357-.007c-1.071-.005-.613-.013.002.022L18.37 62.274c.97.054 7.17.051 11.606.054l6.997.003h3.164v-20ZM22.877 22.595c.432.074 2.526.427 4.938 1.653a17.618 17.618 0 0 1 6.401 5.514L1.537 52.83c4.995 7.076 11.877 8.725 14.551 9.186l6.789-39.42Zm11.344 7.174c2.348 3.33 2.908 6.508 3.08 7.954a16.586 16.586 0 0 1 .049 3.439 18.522 18.522 0 0 1-.027.29l-.005.047-.002.024-.002.011c0 .006 0 .012-19.89-2.086s-19.89-2.092-19.891-2.086l-.002.012-.002.024a19.88 19.88 0 0 0-.069.827 23.438 23.438 0 0 0 .117 4.197c.257 2.17 1.043 6.272 3.956 10.401L34.22 29.768Zm3.203 9.68V21.314h-40v18.133h40Zm0-18.134c0-6.89-3.412-14.004-10.265-17.999A20.69 20.69 0 0 0 16 .516c-.013.001-.025.002.75 19.987.776 19.984.763 19.985.751 19.986h-.024l-.05.002a28.228 28.228 0 0 1-.3.008 19.363 19.363 0 0 1-17.35-10.06 19.028 19.028 0 0 1-2.352-9.124h40ZM16.748.503h-.307v40h.307v-40Zm-.307 0c-4.037 0-8.32 1.191-12.061 3.905a20.562 20.562 0 0 0-6.553 7.946 21.167 21.167 0 0 0-1.972 8.637l39.996.577c-.011.758-.045 3.996-1.784 7.718a19.438 19.438 0 0 1-6.2 7.5 19.477 19.477 0 0 1-11.426 3.717v-40ZM-4.146 21.279v18.537h40V21.279h-40Zm0 18.537c0 7.063 2.92 13.705 8.522 18.514l26.051-30.354c1.295 1.111 2.855 2.871 3.994 5.373a15.716 15.716 0 0 1 1.433 6.467h-40ZM4.377 58.33a23.586 23.586 0 0 0 10.48 5.17 23.615 23.615 0 0 0 5.087.51 21.336 21.336 0 0 0 .991-.034l.063-.004.03-.002h.016c.008-.001.016-.002-1.267-19.96-1.283-19.96-1.276-19.96-1.268-19.96l.015-.002.03-.001.062-.004a16.029 16.029 0 0 1 .372-.018 18.5 18.5 0 0 1 1.583.008c.737.037 1.607.13 2.571.334 1.88.398 4.642 1.34 7.285 3.609L4.377 58.33Zm15.4-14.32v20H22.872l6.875-.001c5.007 0 10.202 0 10.668-.002l-.113-40H39.22l-2.443.001-7.033.001H19.777v20Zm20.638 19.997c7.104-.02 13.8-3.336 18.348-8.903L27.786 29.8c2.686-3.29 7.128-5.777 12.516-5.792l.113 40Zm18.354-8.91c3.245-3.977 4.434-8.096 4.913-10.529a24.742 24.742 0 0 0 .464-4.58 21.801 21.801 0 0 0-.013-.895l-.001-.026v-.013c-.001-.006-.001-.013-19.986.762-19.985.774-19.986.767-19.986.761v-.013l-.001-.025-.002-.05a17.128 17.128 0 0 1 .016-1.569c.033-.576.105-1.28.262-2.075.275-1.4 1.028-4.201 3.344-7.039l30.99 25.291Z" mask="url(#b)"/></g></symbol><symbol id="vkontakte" viewBox="0 0 23 13"><path d="M.07 1.993c0-.622.423-.957 1.27-1.006l3.26.018c.22 0 .365.091.438.274.336.915.711 1.704 1.127 2.369.416.664.96 1.43 1.63 2.295.059.11.154.165.285.165a.276.276 0 0 0 .24-.128l.067-.201.021-3.164c0-.22-.062-.366-.186-.44-.124-.073-.353-.127-.689-.164-.263-.037-.394-.17-.394-.402 0-.05.007-.086.022-.11C7.467.706 8.343.31 9.787.31l1.226-.018c.554 0 1.014.116 1.379.347.364.232.547.598.547 1.098v4.151a.562.562 0 0 0 .284.092c.22 0 .409-.11.57-.33 1.604-1.877 2.472-3.133 2.604-3.767a.29.29 0 0 1 .044-.092c.102-.182.27-.34.503-.475.233-.134.438-.226.613-.274a.507.507 0 0 1 .197-.037h3.392l.219.018c.292 0 .518.116.678.348a.63.63 0 0 1 .12.238c.022.085.037.17.044.256.008.085.011.134.011.146v.128c-.102.5-.36 1.033-.777 1.6-.415.567-.944 1.18-1.586 1.838-.642.659-1.044 1.092-1.204 1.299-.131.146-.197.28-.197.402 0 .098.058.208.175.33l3.195 3.365a.939.939 0 0 1 .263.64c0 .28-.131.512-.394.695a1.826 1.826 0 0 1-.941.31l-.372.02h-3.327a.794.794 0 0 0-.087.008.802.802 0 0 1-.088.01c-.32 0-.62-.116-.897-.348-.102-.098-.788-.817-2.057-2.158a1.107 1.107 0 0 0-.307-.238c-.058.195-.135.475-.23.841-.094.366-.164.628-.207.787l-.066.31c-.146.427-.452.684-.92.769l-.306.018H9.743c-1.21 0-2.418-.463-3.622-1.39-1.203-.927-2.287-2.125-3.25-3.594-.963-1.469-1.86-3.18-2.691-5.13a1.254 1.254 0 0 1-.11-.53ZM13.223 6.73a1.66 1.66 0 0 1-.831-.21c-.248-.14-.372-.333-.372-.577V1.737c0-.244-.073-.418-.22-.522-.145-.103-.4-.155-.765-.155l-1.248.036c-.627 0-1.101.092-1.422.275.642.256.963.67.963 1.244v3.218c-.03.305-.175.558-.438.76a1.405 1.405 0 0 1-.875.301c-.438 0-.774-.177-1.007-.53C5.87 4.925 5.024 3.559 4.469 2.267l-.197-.476-2.91-.018c-.19 0-.296.01-.318.028-.022.018-.033.07-.033.155 0 .11.015.226.044.348l.46 1.024C2.74 5.974 4.07 8.058 5.509 9.583c1.437 1.524 2.848 2.286 4.234 2.286h2.189c.088 0 .153-.021.197-.064.044-.043.08-.125.11-.247l.043-.183.416-1.61c.117-.219.219-.365.306-.438a.86.86 0 0 1 .57-.201c.35 0 .707.176 1.072.53l1.86 1.975c.117.159.24.238.372.238h3.611c.438 0 .657-.091.657-.274a.312.312 0 0 0-.066-.183l-3.173-3.31c-.248-.257-.372-.531-.372-.824 0-.292.116-.573.35-.841.19-.244.558-.65 1.105-1.216a28.203 28.203 0 0 0 1.434-1.591c.408-.494.678-.942.81-1.345l.065-.237a.243.243 0 0 1-.022-.12c0-.054-.007-.1-.022-.137H17.82a1.2 1.2 0 0 0-.525.33l-.131.347c-.365.841-1.32 2.14-2.867 3.896a1.672 1.672 0 0 1-1.073.366Z"/></symbol></svg>